<?xml version="1.0" standalone="no"?>
<!DOCTYPE svg PUBLIC "-//W3C//DTD SVG 1.1//EN" "http://www.w3.org/Graphics/SVG/1.1/DTD/svg11.dtd">
<svg xmlns="http://www.w3.org/2000/svg" xmlns:xlink="http://www.w3.org/1999/xlink" width="148.5" zoomAndPan="magnify" viewBox="0 0 148.5 87.749997" height="87.75" preserveAspectRatio="xMidYMid meet" version="1.0"><defs><g/><clipPath id="a831098914"><path d="M 0 0.0234375 L 65.777344 0.0234375 L 65.777344 65.800781 L 0 65.800781 Z M 0 0.0234375 " clip-rule="nonzero"/></clipPath><clipPath id="42a8bbf777"><path d="M 44 53 L 50 53 L 50 59 L 44 59 Z M 44 53 " clip-rule="nonzero"/></clipPath><clipPath id="1730912e8e"><path d="M 45.351562 53.277344 L 50.160156 54.09375 L 49.3125 59.109375 L 44.5 58.292969 Z M 45.351562 53.277344 " clip-rule="nonzero"/></clipPath><clipPath id="390e0b1d05"><path d="M 49.859375 55.816406 C 48.753906 58.398438 48.371094 58.539062 47.996094 58.628906 C 47.621094 58.71875 47.199219 58.800781 46.765625 58.625 C 46.1875 58.421875 45.273438 57.757812 45.027344 57.097656 C 44.777344 56.441406 44.972656 55.296875 45.265625 54.78125 C 45.433594 54.398438 45.78125 54.152344 46.171875 53.960938 C 46.515625 53.761719 46.898438 53.621094 47.304688 53.640625 C 47.910156 53.691406 49.429688 54.71875 49.429688 54.71875 " clip-rule="nonzero"/></clipPath><clipPath id="b60043a720"><path d="M 0.730469 0.601562 L 5.992188 0.601562 L 5.992188 5.863281 L 0.730469 5.863281 Z M 0.730469 0.601562 " clip-rule="nonzero"/></clipPath><clipPath id="567c099ae6"><path d="M 1.351562 0.277344 L 6.160156 1.09375 L 5.3125 6.109375 L 0.5 5.292969 Z M 1.351562 0.277344 " clip-rule="nonzero"/></clipPath><clipPath id="80d7772b2a"><path d="M 5.859375 2.816406 C 4.753906 5.398438 4.371094 5.539062 3.996094 5.628906 C 3.621094 5.71875 3.199219 5.800781 2.765625 5.625 C 2.1875 5.421875 1.273438 4.757812 1.027344 4.097656 C 0.777344 3.441406 0.972656 2.296875 1.265625 1.78125 C 1.433594 1.398438 1.78125 1.152344 2.171875 0.960938 C 2.515625 0.761719 2.898438 0.621094 3.304688 0.640625 C 3.910156 0.691406 5.429688 1.71875 5.429688 1.71875 " clip-rule="nonzero"/></clipPath><clipPath id="1f05fe80a4"><rect x="0" width="6" y="0" height="6"/></clipPath><clipPath id="abc8a79b03"><path d="M 42.355469 47.152344 L 55.359375 47.152344 L 55.359375 60.523438 L 42.355469 60.523438 Z M 42.355469 47.152344 " clip-rule="nonzero"/></clipPath><clipPath id="e58a8dbf1d"><path d="M 42.390625 59.074219 C 43.886719 50.777344 44.1875 50.179688 44.785156 49.429688 C 45.605469 48.609375 47.324219 47.339844 48.371094 47.1875 C 49.042969 47.113281 49.566406 47.1875 50.167969 47.785156 C 51.808594 49.207031 55.921875 58.550781 55.25 59.820312 C 55.023438 60.269531 54.054688 60.34375 53.902344 60.195312 C 53.753906 60.046875 53.976562 59.222656 54.203125 59.148438 C 54.425781 59 55.097656 59.296875 55.175781 59.523438 C 55.324219 59.746094 55.023438 60.417969 54.800781 60.496094 C 54.578125 60.570312 54.203125 60.496094 53.902344 60.195312 C 53.304688 59.597656 53.230469 57.355469 52.558594 55.710938 C 51.660156 53.542969 50.089844 48.757812 48.671875 48.535156 C 47.476562 48.386719 45.757812 50.851562 44.933594 52.421875 C 43.960938 54.363281 44.410156 58.550781 43.738281 59.449219 C 43.589844 59.746094 43.214844 59.894531 42.988281 59.820312 C 42.765625 59.820312 42.390625 59.074219 42.390625 59.074219 " clip-rule="nonzero"/></clipPath><clipPath id="cf07e00217"><path d="M 0.355469 0.152344 L 13.359375 0.152344 L 13.359375 13.523438 L 0.355469 13.523438 Z M 0.355469 0.152344 " clip-rule="nonzero"/></clipPath><clipPath id="84a5ec6e50"><path d="M 0.390625 12.074219 C 1.886719 3.777344 2.1875 3.179688 2.785156 2.429688 C 3.605469 1.609375 5.324219 0.339844 6.371094 0.1875 C 7.042969 0.113281 7.566406 0.1875 8.167969 0.785156 C 9.808594 2.207031 13.921875 11.550781 13.25 12.820312 C 13.023438 13.269531 12.054688 13.34375 11.902344 13.195312 C 11.753906 13.046875 11.976562 12.222656 12.203125 12.148438 C 12.425781 12 13.097656 12.296875 13.175781 12.523438 C 13.324219 12.746094 13.023438 13.417969 12.800781 13.496094 C 12.578125 13.570312 12.203125 13.496094 11.902344 13.195312 C 11.304688 12.597656 11.230469 10.355469 10.558594 8.710938 C 9.660156 6.542969 8.089844 1.757812 6.671875 1.535156 C 5.476562 1.386719 3.757812 3.851562 2.933594 5.421875 C 1.960938 7.363281 2.410156 11.550781 1.738281 12.449219 C 1.589844 12.746094 1.214844 12.894531 0.988281 12.820312 C 0.765625 12.820312 0.390625 12.074219 0.390625 12.074219 " clip-rule="nonzero"/></clipPath><clipPath id="e69300b523"><rect x="0" width="14" y="0" height="14"/></clipPath><clipPath id="2accd0c9cd"><path d="M 0.0195312 1 L 7 1 L 7 8 L 0.0195312 8 Z M 0.0195312 1 " clip-rule="nonzero"/></clipPath><clipPath id="d42a022b24"><rect x="0" width="44" y="0" height="10"/></clipPath></defs><g clip-path="url(#a831098914)"><path fill="#000000" d="M 2.59375 20.117188 C 4.25 16.199219 6.621094 12.683594 9.640625 9.664062 C 12.660156 6.644531 16.179688 4.273438 20.09375 2.613281 C 24.152344 0.898438 28.457031 0.03125 32.898438 0.03125 C 37.335938 0.03125 41.644531 0.898438 45.703125 2.613281 C 49.617188 4.273438 53.132812 6.644531 56.15625 9.664062 C 59.175781 12.683594 61.546875 16.199219 63.203125 20.117188 C 64.917969 24.175781 65.789062 28.480469 65.789062 32.921875 C 65.789062 37.023438 65.042969 41.015625 63.574219 44.800781 C 63.363281 45.347656 62.835938 45.707031 62.25 45.707031 C 61.25 45.707031 60.5625 44.707031 60.921875 43.773438 C 62.199219 40.492188 62.914062 36.9375 62.949219 33.21875 C 63.113281 16.304688 49.59375 2.746094 32.679688 2.867188 C 16.324219 2.984375 3.03125 16.230469 2.84375 32.570312 C 2.652344 49.101562 16.203125 62.886719 32.738281 62.976562 C 34.941406 62.984375 37.085938 62.757812 39.152344 62.320312 C 39.578125 62.230469 39.945312 61.960938 40.132812 61.570312 C 40.132812 61.566406 40.136719 61.566406 40.136719 61.5625 C 40.535156 60.730469 39.507812 57.566406 39.441406 57.421875 C 38.550781 55.476562 36.835938 54.445312 34.625 54.582031 C 33.136719 54.675781 31.65625 54.925781 30.164062 55.027344 C 27.503906 55.210938 25.164062 54.394531 23.226562 52.558594 C 21.042969 50.496094 19.621094 47.984375 19.050781 45.019531 C 18.941406 44.449219 18.859375 43.871094 18.894531 43.257812 C 18.921875 42.796875 19.453125 42.5625 19.8125 42.851562 C 21.230469 43.996094 22.917969 44.234375 24.671875 44.292969 C 26.238281 44.34375 27.804688 44.386719 29.367188 44.503906 C 34.019531 44.847656 36.648438 48.503906 37.746094 51.605469 C 37.746094 51.609375 37.742188 51.617188 37.734375 51.628906 C 37.660156 51.714844 37.527344 51.714844 37.441406 51.644531 C 36.691406 51.007812 35.949219 50.351562 35.175781 49.738281 C 33.550781 48.445312 29.75 47.640625 26.894531 47.175781 C 30.582031 47.929688 36.074219 49.855469 38.714844 55.101562 C 38.929688 55.527344 39.144531 55.980469 39.539062 56.308594 C 39.667969 56.414062 39.867188 56.359375 39.914062 56.199219 C 39.917969 56.195312 39.917969 56.191406 39.917969 56.183594 C 40.695312 52.546875 40.039062 49.34375 37.15625 46.753906 C 35.132812 44.933594 32.789062 43.558594 30.648438 41.90625 C 28.226562 40.035156 26.167969 37.871094 24.738281 35.117188 C 20.40625 26.800781 23.78125 14.851562 28.648438 9.4375 C 29.097656 8.933594 29.554688 8.414062 30.210938 8.019531 C 30.410156 7.898438 30.664062 8.046875 30.660156 8.28125 C 30.5625 12.089844 32.519531 14.878906 34.980469 17.410156 C 36.96875 19.449219 39.050781 21.394531 41.042969 23.425781 C 43.203125 25.632812 45.023438 28.082031 46.003906 31.058594 C 47.558594 35.773438 46.953125 40.40625 45.402344 44.988281 C 45.292969 45.3125 45.183594 45.648438 45.042969 45.972656 C 44.863281 46.386719 44.25 46.25 44.253906 45.796875 L 44.253906 45.785156 C 44.261719 41.832031 43.753906 37.964844 42.101562 34.328125 C 40.757812 31.371094 38.664062 28.941406 36.496094 26.570312 C 33.945312 23.785156 29.652344 16.613281 29.539062 16.1875 C 29.484375 16.652344 30.199219 19.5625 30.660156 20.535156 C 31.800781 22.945312 33.210938 25.394531 34.921875 27.398438 C 38.191406 31.230469 40.839844 35.042969 41.667969 40.121094 C 42.328125 44.195312 42.039062 51.03125 41.859375 54.09375 C 41.800781 55.070312 41.964844 56.042969 42.3125 56.953125 C 43.214844 59.316406 43.289062 61.277344 42.523438 62.796875 C 42.28125 63.28125 41.925781 63.683594 41.550781 64.011719 C 40.804688 64.667969 39.882812 65.082031 38.90625 65.261719 C 36.9375 65.625 34.929688 65.808594 32.894531 65.808594 C 28.457031 65.808594 24.148438 64.9375 20.09375 63.222656 C 16.175781 61.566406 12.65625 59.195312 9.640625 56.175781 C 6.617188 53.15625 4.246094 49.640625 2.59375 45.722656 C 0.875 41.664062 0.0078125 37.359375 0.0078125 32.917969 C 0.0078125 28.480469 0.878906 24.175781 2.59375 20.117188 Z M 2.59375 20.117188 " fill-opacity="1" fill-rule="nonzero"/></g><g fill="#000000" fill-opacity="1"><g transform="translate(56.386905, 60.182068)"><g><path d="M 3.171875 -3.15625 L 0.125 -8.109375 C 0.0625 -8.210938 0.0390625 -8.28125 0.0625 -8.3125 C 0.09375 -8.34375 0.148438 -8.359375 0.234375 -8.359375 L 1.328125 -8.359375 C 1.410156 -8.359375 1.472656 -8.34375 1.515625 -8.3125 C 1.554688 -8.28125 1.601562 -8.210938 1.65625 -8.109375 L 4.609375 -3.1875 L 4.578125 -3.15625 L 4.578125 -0.25 C 4.578125 -0.15625 4.5625 -0.0859375 4.53125 -0.046875 C 4.5 -0.015625 4.429688 0 4.328125 0 L 3.4375 0 C 3.332031 0 3.257812 -0.015625 3.21875 -0.046875 C 3.1875 -0.0859375 3.171875 -0.15625 3.171875 -0.25 Z M 7.640625 -8.109375 L 4.703125 -3.375 L 3.984375 -4.609375 L 6.125 -8.109375 C 6.1875 -8.210938 6.234375 -8.28125 6.265625 -8.3125 C 6.304688 -8.34375 6.367188 -8.359375 6.453125 -8.359375 L 7.515625 -8.359375 C 7.609375 -8.359375 7.664062 -8.34375 7.6875 -8.3125 C 7.707031 -8.28125 7.691406 -8.210938 7.640625 -8.109375 Z M 7.640625 -8.109375 "/></g></g></g><g fill="#000000" fill-opacity="1"><g transform="translate(65.033809, 60.182068)"><g><path d="M 4.203125 -1.109375 L 4.203125 0.15625 C 3.585938 0.132812 3.019531 -0.00390625 2.5 -0.265625 C 1.988281 -0.535156 1.578125 -0.9375 1.265625 -1.46875 C 0.953125 -2 0.796875 -2.65625 0.796875 -3.4375 L 0.796875 -8.109375 C 0.796875 -8.273438 0.882812 -8.359375 1.0625 -8.359375 L 2 -8.359375 C 2.101562 -8.359375 2.171875 -8.34375 2.203125 -8.3125 C 2.234375 -8.28125 2.25 -8.210938 2.25 -8.109375 L 2.25 -3.5 C 2.25 -2.664062 2.429688 -2.0625 2.796875 -1.6875 C 3.160156 -1.320312 3.628906 -1.128906 4.203125 -1.109375 Z M 4.40625 0.15625 L 4.40625 -1.109375 C 5 -1.128906 5.472656 -1.328125 5.828125 -1.703125 C 6.191406 -2.078125 6.375 -2.675781 6.375 -3.5 L 6.375 -8.109375 C 6.375 -8.210938 6.390625 -8.28125 6.421875 -8.3125 C 6.453125 -8.34375 6.519531 -8.359375 6.625 -8.359375 L 7.546875 -8.359375 C 7.648438 -8.359375 7.71875 -8.34375 7.75 -8.3125 C 7.789062 -8.28125 7.8125 -8.210938 7.8125 -8.109375 L 7.8125 -3.4375 C 7.8125 -2.65625 7.65625 -2 7.34375 -1.46875 C 7.039062 -0.9375 6.628906 -0.535156 6.109375 -0.265625 C 5.597656 -0.00390625 5.03125 0.132812 4.40625 0.15625 Z M 4.40625 0.15625 "/></g></g></g><g fill="#000000" fill-opacity="1"><g transform="translate(74.553772, 60.182068)"><g><path d="M 5.78125 -5.859375 C 5.78125 -6.304688 5.632812 -6.632812 5.34375 -6.84375 C 5.0625 -7.050781 4.660156 -7.15625 4.140625 -7.15625 L 2.6875 -7.15625 L 2.6875 -8.359375 L 4.203125 -8.359375 C 4.546875 -8.359375 4.890625 -8.316406 5.234375 -8.234375 C 5.585938 -8.160156 5.910156 -8.023438 6.203125 -7.828125 C 6.492188 -7.640625 6.726562 -7.382812 6.90625 -7.0625 C 7.09375 -6.75 7.1875 -6.347656 7.1875 -5.859375 C 7.1875 -5.367188 7.097656 -4.957031 6.921875 -4.625 C 6.742188 -4.300781 6.507812 -4.039062 6.21875 -3.84375 C 5.925781 -3.65625 5.601562 -3.519531 5.25 -3.4375 C 4.90625 -3.351562 4.554688 -3.3125 4.203125 -3.3125 L 2.6875 -3.3125 L 2.6875 -4.515625 L 4.140625 -4.515625 C 4.765625 -4.515625 5.191406 -4.644531 5.421875 -4.90625 C 5.660156 -5.164062 5.78125 -5.484375 5.78125 -5.859375 Z M 2.234375 0 L 1.296875 0 C 1.191406 0 1.125 -0.015625 1.09375 -0.046875 C 1.0625 -0.078125 1.046875 -0.144531 1.046875 -0.25 L 1.046875 -8.109375 C 1.046875 -8.210938 1.0625 -8.28125 1.09375 -8.3125 C 1.125 -8.34375 1.191406 -8.359375 1.296875 -8.359375 L 2.484375 -8.359375 L 2.484375 -0.25 C 2.484375 -0.144531 2.460938 -0.078125 2.421875 -0.046875 C 2.390625 -0.015625 2.328125 0 2.234375 0 Z M 4.03125 -3.109375 L 4.390625 -3.109375 C 4.628906 -3.109375 4.832031 -3.117188 5 -3.140625 C 5.175781 -3.160156 5.34375 -3.203125 5.5 -3.265625 L 7.5 -0.328125 C 7.570312 -0.222656 7.582031 -0.140625 7.53125 -0.078125 C 7.476562 -0.0234375 7.398438 0 7.296875 0 L 6.40625 0 C 6.300781 0 6.21875 -0.0195312 6.15625 -0.0625 C 6.09375 -0.101562 6.03125 -0.164062 5.96875 -0.25 Z M 4.03125 -3.109375 "/></g></g></g><g fill="#000000" fill-opacity="1"><g transform="translate(83.260464, 60.182068)"><g><path d="M 4.15625 -0.0625 L 0.125 -8.109375 C 0.09375 -8.179688 0.09375 -8.238281 0.125 -8.28125 C 0.15625 -8.332031 0.207031 -8.359375 0.28125 -8.359375 L 1.390625 -8.359375 C 1.472656 -8.359375 1.535156 -8.34375 1.578125 -8.3125 C 1.617188 -8.28125 1.664062 -8.210938 1.71875 -8.109375 L 5.140625 -1.078125 L 4.609375 -0.0625 C 4.566406 0.0195312 4.53125 0.078125 4.5 0.109375 C 4.476562 0.148438 4.445312 0.171875 4.40625 0.171875 L 4.359375 0.171875 C 4.316406 0.171875 4.285156 0.148438 4.265625 0.109375 C 4.242188 0.078125 4.207031 0.0195312 4.15625 -0.0625 Z M 8.65625 -8.109375 L 5.265625 -1.296875 L 4.515625 -2.8125 L 7.046875 -8.109375 C 7.140625 -8.273438 7.253906 -8.359375 7.390625 -8.359375 L 8.484375 -8.359375 C 8.578125 -8.359375 8.632812 -8.328125 8.65625 -8.265625 C 8.675781 -8.210938 8.675781 -8.160156 8.65625 -8.109375 Z M 8.65625 -8.109375 "/></g></g></g><g fill="#000000" fill-opacity="1"><g transform="translate(92.91198, 60.182068)"><g><path d="M 1.015625 -0.25 L 1.015625 -8.109375 C 1.015625 -8.273438 1.101562 -8.359375 1.28125 -8.359375 L 2.46875 -8.359375 L 2.46875 0 L 1.28125 0 C 1.175781 0 1.101562 -0.015625 1.0625 -0.046875 C 1.03125 -0.0859375 1.015625 -0.15625 1.015625 -0.25 Z M 2.671875 -8.359375 L 6.640625 -8.359375 C 6.816406 -8.359375 6.90625 -8.273438 6.90625 -8.109375 L 6.90625 -7.390625 C 6.90625 -7.210938 6.816406 -7.125 6.640625 -7.125 L 2.671875 -7.125 Z M 6.90625 -0.984375 L 6.90625 -0.25 C 6.90625 -0.15625 6.882812 -0.0859375 6.84375 -0.046875 C 6.8125 -0.015625 6.742188 0 6.640625 0 L 2.671875 0 L 2.671875 -1.234375 L 6.640625 -1.234375 C 6.742188 -1.234375 6.8125 -1.21875 6.84375 -1.1875 C 6.882812 -1.15625 6.90625 -1.085938 6.90625 -0.984375 Z M 2.671875 -4.828125 L 6.46875 -4.828125 C 6.570312 -4.828125 6.640625 -4.8125 6.671875 -4.78125 C 6.703125 -4.75 6.71875 -4.679688 6.71875 -4.578125 L 6.71875 -3.84375 C 6.71875 -3.75 6.703125 -3.679688 6.671875 -3.640625 C 6.640625 -3.609375 6.570312 -3.59375 6.46875 -3.59375 L 2.671875 -3.59375 Z M 2.671875 -4.828125 "/></g></g></g><g fill="#000000" fill-opacity="1"><g transform="translate(101.427319, 60.182068)"><g><path d="M 4.28125 -7.15625 L 2.6875 -7.15625 L 2.6875 -8.359375 L 4.296875 -8.359375 C 4.878906 -8.359375 5.425781 -8.253906 5.9375 -8.046875 C 6.445312 -7.835938 6.894531 -7.539062 7.28125 -7.15625 C 7.664062 -6.78125 7.96875 -6.335938 8.1875 -5.828125 C 8.40625 -5.328125 8.515625 -4.78125 8.515625 -4.1875 C 8.515625 -3.582031 8.40625 -3.023438 8.1875 -2.515625 C 7.96875 -2.015625 7.664062 -1.578125 7.28125 -1.203125 C 6.894531 -0.828125 6.445312 -0.53125 5.9375 -0.3125 C 5.425781 -0.101562 4.878906 0 4.296875 0 L 2.6875 0 L 2.6875 -1.203125 L 4.28125 -1.203125 C 4.863281 -1.203125 5.359375 -1.34375 5.765625 -1.625 C 6.179688 -1.90625 6.5 -2.269531 6.71875 -2.71875 C 6.9375 -3.175781 7.046875 -3.664062 7.046875 -4.1875 C 7.046875 -4.707031 6.9375 -5.191406 6.71875 -5.640625 C 6.5 -6.097656 6.179688 -6.460938 5.765625 -6.734375 C 5.359375 -7.015625 4.863281 -7.15625 4.28125 -7.15625 Z M 2.484375 0 L 1.296875 0 C 1.191406 0 1.125 -0.015625 1.09375 -0.046875 C 1.0625 -0.0859375 1.046875 -0.15625 1.046875 -0.25 L 1.046875 -8.109375 C 1.046875 -8.210938 1.0625 -8.28125 1.09375 -8.3125 C 1.125 -8.34375 1.191406 -8.359375 1.296875 -8.359375 L 2.484375 -8.359375 Z M 2.484375 0 "/></g></g></g><g clip-path="url(#42a8bbf777)"><g clip-path="url(#1730912e8e)"><g clip-path="url(#390e0b1d05)"><g transform="matrix(1, 0, 0, 1, 44, 53)"><g clip-path="url(#1f05fe80a4)"><g clip-path="url(#b60043a720)"><g clip-path="url(#567c099ae6)"><g clip-path="url(#80d7772b2a)"><path fill="#000000" d="M -0.144531 -1.996094 L 8.527344 -0.527344 L 7.003906 8.453125 L -1.667969 6.980469 Z M -0.144531 -1.996094 " fill-opacity="1" fill-rule="nonzero"/></g></g></g></g></g></g></g></g><g clip-path="url(#abc8a79b03)"><g clip-path="url(#e58a8dbf1d)"><g transform="matrix(1, 0, 0, 1, 42, 47)"><g clip-path="url(#e69300b523)"><g clip-path="url(#cf07e00217)"><g clip-path="url(#84a5ec6e50)"><rect x="-74.67" width="213.84" fill="#000000" height="126.359996" y="-66.304999" fill-opacity="1"/></g></g></g></g></g></g><g transform="matrix(1, 0, 0, 1, 66, 40)"><g clip-path="url(#d42a022b24)"><g clip-path="url(#2accd0c9cd)"><g fill="#000000" fill-opacity="1"><g transform="translate(0.139284, 7.194913)"><g><path d="M 3.125 -5.21875 L 1.96875 -5.21875 L 1.96875 -6.109375 L 3.125 -6.109375 C 3.5625 -6.109375 3.960938 -6.03125 4.328125 -5.875 C 4.703125 -5.71875 5.03125 -5.5 5.3125 -5.21875 C 5.59375 -4.945312 5.8125 -4.625 5.96875 -4.25 C 6.125 -3.882812 6.203125 -3.484375 6.203125 -3.046875 C 6.203125 -2.609375 6.125 -2.207031 5.96875 -1.84375 C 5.8125 -1.476562 5.59375 -1.15625 5.3125 -0.875 C 5.03125 -0.601562 4.703125 -0.390625 4.328125 -0.234375 C 3.960938 -0.078125 3.5625 0 3.125 0 L 1.96875 0 L 1.96875 -0.875 L 3.125 -0.875 C 3.539062 -0.875 3.898438 -0.972656 4.203125 -1.171875 C 4.503906 -1.378906 4.734375 -1.648438 4.890625 -1.984375 C 5.054688 -2.316406 5.140625 -2.671875 5.140625 -3.046875 C 5.140625 -3.429688 5.054688 -3.785156 4.890625 -4.109375 C 4.734375 -4.441406 4.503906 -4.707031 4.203125 -4.90625 C 3.898438 -5.113281 3.539062 -5.21875 3.125 -5.21875 Z M 1.8125 0 L 0.9375 0 C 0.875 0 0.828125 -0.0078125 0.796875 -0.03125 C 0.773438 -0.0625 0.765625 -0.113281 0.765625 -0.1875 L 0.765625 -5.921875 C 0.765625 -5.992188 0.773438 -6.039062 0.796875 -6.0625 C 0.828125 -6.09375 0.875 -6.109375 0.9375 -6.109375 L 1.8125 -6.109375 Z M 1.8125 0 "/></g></g></g></g><g fill="#000000" fill-opacity="1"><g transform="translate(7.350475, 7.194913)"><g><path d="M 4.21875 -4.265625 C 4.21875 -4.597656 4.113281 -4.835938 3.90625 -4.984375 C 3.695312 -5.140625 3.40625 -5.21875 3.03125 -5.21875 L 1.96875 -5.21875 L 1.96875 -6.109375 L 3.0625 -6.109375 C 3.3125 -6.109375 3.5625 -6.078125 3.8125 -6.015625 C 4.070312 -5.953125 4.304688 -5.851562 4.515625 -5.71875 C 4.734375 -5.582031 4.90625 -5.394531 5.03125 -5.15625 C 5.164062 -4.914062 5.234375 -4.617188 5.234375 -4.265625 C 5.234375 -3.910156 5.171875 -3.613281 5.046875 -3.375 C 4.921875 -3.144531 4.75 -2.957031 4.53125 -2.8125 C 4.320312 -2.664062 4.085938 -2.5625 3.828125 -2.5 C 3.578125 -2.445312 3.320312 -2.421875 3.0625 -2.421875 L 1.96875 -2.421875 L 1.96875 -3.296875 L 3.03125 -3.296875 C 3.476562 -3.296875 3.785156 -3.390625 3.953125 -3.578125 C 4.128906 -3.765625 4.21875 -3.992188 4.21875 -4.265625 Z M 1.625 0 L 0.9375 0 C 0.875 0 0.828125 -0.0078125 0.796875 -0.03125 C 0.773438 -0.0507812 0.765625 -0.101562 0.765625 -0.1875 L 0.765625 -5.921875 C 0.765625 -5.992188 0.773438 -6.039062 0.796875 -6.0625 C 0.828125 -6.09375 0.875 -6.109375 0.9375 -6.109375 L 1.8125 -6.109375 L 1.8125 -0.1875 C 1.8125 -0.101562 1.796875 -0.0507812 1.765625 -0.03125 C 1.742188 -0.0078125 1.695312 0 1.625 0 Z M 2.9375 -2.265625 L 3.203125 -2.265625 C 3.378906 -2.265625 3.53125 -2.269531 3.65625 -2.28125 C 3.78125 -2.300781 3.898438 -2.332031 4.015625 -2.375 L 5.46875 -0.234375 C 5.519531 -0.160156 5.523438 -0.101562 5.484375 -0.0625 C 5.453125 -0.0195312 5.394531 0 5.3125 0 L 4.671875 0 C 4.597656 0 4.535156 -0.015625 4.484375 -0.046875 C 4.441406 -0.078125 4.394531 -0.125 4.34375 -0.1875 Z M 2.9375 -2.265625 "/></g></g></g><g fill="#000000" fill-opacity="1"><g transform="translate(13.785612, 7.194913)"><g><path d="M 0.546875 -0.5625 C 0.546875 -0.75 0.609375 -0.90625 0.734375 -1.03125 C 0.859375 -1.164062 1.015625 -1.234375 1.203125 -1.234375 C 1.390625 -1.234375 1.550781 -1.164062 1.6875 -1.03125 C 1.820312 -0.90625 1.890625 -0.75 1.890625 -0.5625 C 1.890625 -0.375 1.820312 -0.21875 1.6875 -0.09375 C 1.550781 0.03125 1.390625 0.09375 1.203125 0.09375 C 1.015625 0.09375 0.859375 0.03125 0.734375 -0.09375 C 0.609375 -0.21875 0.546875 -0.375 0.546875 -0.5625 Z M 0.546875 -0.5625 "/></g></g></g><g fill="#000000" fill-opacity="1"><g transform="translate(16.863665, 7.194913)"><g><path d="M 3.125 -5.21875 L 1.96875 -5.21875 L 1.96875 -6.109375 L 3.125 -6.109375 C 3.5625 -6.109375 3.960938 -6.03125 4.328125 -5.875 C 4.703125 -5.71875 5.03125 -5.5 5.3125 -5.21875 C 5.59375 -4.945312 5.8125 -4.625 5.96875 -4.25 C 6.125 -3.882812 6.203125 -3.484375 6.203125 -3.046875 C 6.203125 -2.609375 6.125 -2.207031 5.96875 -1.84375 C 5.8125 -1.476562 5.59375 -1.15625 5.3125 -0.875 C 5.03125 -0.601562 4.703125 -0.390625 4.328125 -0.234375 C 3.960938 -0.078125 3.5625 0 3.125 0 L 1.96875 0 L 1.96875 -0.875 L 3.125 -0.875 C 3.539062 -0.875 3.898438 -0.972656 4.203125 -1.171875 C 4.503906 -1.378906 4.734375 -1.648438 4.890625 -1.984375 C 5.054688 -2.316406 5.140625 -2.671875 5.140625 -3.046875 C 5.140625 -3.429688 5.054688 -3.785156 4.890625 -4.109375 C 4.734375 -4.441406 4.503906 -4.707031 4.203125 -4.90625 C 3.898438 -5.113281 3.539062 -5.21875 3.125 -5.21875 Z M 1.8125 0 L 0.9375 0 C 0.875 0 0.828125 -0.0078125 0.796875 -0.03125 C 0.773438 -0.0625 0.765625 -0.113281 0.765625 -0.1875 L 0.765625 -5.921875 C 0.765625 -5.992188 0.773438 -6.039062 0.796875 -6.0625 C 0.828125 -6.09375 0.875 -6.109375 0.9375 -6.109375 L 1.8125 -6.109375 Z M 1.8125 0 "/></g></g></g><g fill="#000000" fill-opacity="1"><g transform="translate(24.074857, 7.194913)"><g><path d="M 0.78125 -0.1875 L 0.78125 -5.921875 C 0.78125 -5.992188 0.789062 -6.039062 0.8125 -6.0625 C 0.84375 -6.09375 0.890625 -6.109375 0.953125 -6.109375 L 1.640625 -6.109375 C 1.722656 -6.109375 1.773438 -6.09375 1.796875 -6.0625 C 1.816406 -6.039062 1.828125 -5.992188 1.828125 -5.921875 L 1.828125 -0.1875 C 1.828125 -0.113281 1.8125 -0.0625 1.78125 -0.03125 C 1.757812 -0.0078125 1.710938 0 1.640625 0 L 0.953125 0 C 0.890625 0 0.84375 -0.0078125 0.8125 -0.03125 C 0.789062 -0.0625 0.78125 -0.113281 0.78125 -0.1875 Z M 0.78125 -0.1875 "/></g></g></g><g fill="#000000" fill-opacity="1"><g transform="translate(27.336022, 7.194913)"><g><path d="M 5.578125 0 L 4.75 0 C 4.695312 0 4.648438 -0.0078125 4.609375 -0.03125 C 4.578125 -0.0625 4.53125 -0.113281 4.46875 -0.1875 L 0.203125 -5.921875 C 0.128906 -6.046875 0.160156 -6.109375 0.296875 -6.109375 L 1.125 -6.109375 C 1.1875 -6.109375 1.234375 -6.09375 1.265625 -6.0625 C 1.304688 -6.039062 1.347656 -5.992188 1.390625 -5.921875 L 5.671875 -0.1875 C 5.753906 -0.0625 5.722656 0 5.578125 0 Z M 4.765625 -6.109375 L 5.59375 -6.109375 C 5.65625 -6.109375 5.695312 -6.09375 5.71875 -6.0625 C 5.738281 -6.039062 5.722656 -5.992188 5.671875 -5.921875 L 3.625 -3.1875 L 3.03125 -3.96875 L 4.484375 -5.921875 C 4.535156 -5.992188 4.578125 -6.039062 4.609375 -6.0625 C 4.648438 -6.09375 4.703125 -6.109375 4.765625 -6.109375 Z M 1.140625 0 L 0.3125 0 C 0.164062 0 0.132812 -0.0625 0.21875 -0.1875 L 2.265625 -2.890625 L 2.859375 -2.09375 L 1.40625 -0.1875 C 1.351562 -0.113281 1.3125 -0.0625 1.28125 -0.03125 C 1.25 -0.0078125 1.203125 0 1.140625 0 Z M 1.140625 0 "/></g></g></g><g fill="#000000" fill-opacity="1"><g transform="translate(33.849637, 7.194913)"><g><path d="M 0.78125 -0.1875 L 0.78125 -5.921875 C 0.78125 -5.992188 0.789062 -6.039062 0.8125 -6.0625 C 0.84375 -6.09375 0.890625 -6.109375 0.953125 -6.109375 L 1.640625 -6.109375 C 1.722656 -6.109375 1.773438 -6.09375 1.796875 -6.0625 C 1.816406 -6.039062 1.828125 -5.992188 1.828125 -5.921875 L 1.828125 -0.1875 C 1.828125 -0.113281 1.8125 -0.0625 1.78125 -0.03125 C 1.757812 -0.0078125 1.710938 0 1.640625 0 L 0.953125 0 C 0.890625 0 0.84375 -0.0078125 0.8125 -0.03125 C 0.789062 -0.0625 0.78125 -0.113281 0.78125 -0.1875 Z M 0.78125 -0.1875 "/></g></g></g><g fill="#000000" fill-opacity="1"><g transform="translate(37.110801, 7.194913)"><g><path d="M 2.171875 -5.15625 L 0.265625 -5.15625 C 0.191406 -5.15625 0.144531 -5.164062 0.125 -5.1875 C 0.101562 -5.21875 0.09375 -5.269531 0.09375 -5.34375 L 0.09375 -5.921875 C 0.09375 -5.992188 0.101562 -6.039062 0.125 -6.0625 C 0.15625 -6.09375 0.203125 -6.109375 0.265625 -6.109375 L 3.234375 -6.109375 L 3.234375 -0.1875 C 3.234375 -0.113281 3.21875 -0.0625 3.1875 -0.03125 C 3.164062 -0.0078125 3.117188 0 3.046875 0 L 2.359375 0 C 2.285156 0 2.234375 -0.0078125 2.203125 -0.03125 C 2.179688 -0.0625 2.171875 -0.113281 2.171875 -0.1875 Z M 5.140625 -5.15625 L 3.390625 -5.15625 L 3.390625 -6.109375 L 5.140625 -6.109375 C 5.210938 -6.109375 5.257812 -6.09375 5.28125 -6.0625 C 5.300781 -6.039062 5.3125 -5.992188 5.3125 -5.921875 L 5.3125 -5.34375 C 5.3125 -5.269531 5.296875 -5.21875 5.265625 -5.1875 C 5.242188 -5.164062 5.203125 -5.15625 5.140625 -5.15625 Z M 5.140625 -5.15625 "/></g></g></g></g></g></svg>